<?xml version="1.0" encoding="UTF-8"?>
<svg id="Layer_1" xmlns="http://www.w3.org/2000/svg" version="1.1" viewBox="0 0 358.9 213.1">
  <!-- Generator: Adobe Illustrator 29.6.1, SVG Export Plug-In . SVG Version: 2.1.1 Build 9)  -->
  <defs>
    <style>
      .st0 {
        fill: #fff;
      }
    </style>
  </defs>
  <rect class="st0" x="35.5" y="149.3" width="288" height="1.5"/>
  <path class="st0" d="M228.9,163.4c-.1-2.1-.8-3.8-2.9-3.8-2.9,0-3.4,3.4-3.4,7.9s.4,8,3.4,8,3.2-3.7,3.2-6.3h-3.5v-2.2h5.8v10.2h-1.9v-2.1c-.7,1.4-2,2.5-3.8,2.5-4.8,0-5.6-5-5.6-10.1,0-4.8.8-10.1,5.9-10.1s5.4,4.8,5.4,5.8l-2.6.2ZM197.6,157.8h9.5v2.3h-7.1v5.8h6.7v2.3h-6.7v6.7h7.4v2.3h-9.8v-19.4h0ZM175.6,157.8h2.4v17.1h7.3v2.3h-9.7v-19.4ZM153.7,157.8h2.4v17.1h7.3v2.3h-9.7v-19.4ZM137.6,167.5c0-4.4-.4-8.2-3.6-8.2s-3.6,3.8-3.6,8.2.4,8.2,3.6,8.2,3.6-3.8,3.6-8.2M139.9,167.5c0,4.8-.8,10.1-5.9,10.1s-5.9-5.3-5.9-10.1.8-10.1,5.9-10.1,5.9,5.3,5.9,10.1M115.3,170.4c-.2,3.8-1.6,7.2-5.6,7.2-5.2,0-5.9-5.3-5.9-10.1s.8-10.1,5.9-10.1c3.8,0,5.3,2.3,5.4,6.1l-2.5.1c-.1-2.3-.7-4-2.9-4-2.9,0-3.4,3.4-3.4,7.9s.4,8,3.4,8c2.6,0,3-2.6,3-4.9l2.6-.2ZM245.3,157.8h9.5v2.3h-7.1v5.8h6.7v2.3h-6.7v6.7h7.4v2.3h-9.8v-19.4h0Z"/>
  <path class="st0" d="M138,124.7c-1.9.6-6.2.1-6.6.1s-.3-.8-.3-.8c.7-3,.9-7.1,4.7-7.7,1-.1,1.9,0,2.5.8,1.3,1.4,1.7,3.7,1.3,5.7-.3.9-.8,1.5-1.6,1.9M203.8,121.8c4.8,0,6.8-.7,7.7-2.4,1.2-2.3,1.4-6.9-.3-9.5-.8-1.7-2.5-2.3-4-2.3-1.9,0-3.4.5-3.5,1.2v.3c-.3,4-.2,8.4-.3,12.4.1-.2,0,.3.4.3M228.4,140.7c-4.7-.6-13.9,0-14.2,0-.5,0-.9-.8-.9-.8-2.4-5.2-4.4-10.6-6.9-15.6-.5-.9-1.6-.6-2.4-.5,0,0-.7,0-.7.8v12.2c0,.9.6,1.6,1.2,2.1.9.6,2.9-.2,2.9,1.5,0,.3-.3.4-.5.4-4.2-.3-7.3-.2-11.6,0-.3-.1-.6-.2-.6-.7,0-.2.1-.4.2-.5.8-.9,2.9-.1,3.1-1.8l.1-4.2.1-24.3c0-1.3-.4-1.6-.8-1.7-.8-.3-2.5,0-2.5-.9,0-.4.2-1,.7-.9,6.6.8,11.3-.9,16.5.4,2.9.7,4.9,3,5.6,5.4.8,2.7.4,5.5-.8,7.6-1.7,2.3-4.2,3.3-6.7,4,1,.3,2.1,1,2.5,2.2l5.8,13.2c.5,1.2,3,.7,3.2-.4.2-1.1.1-11.7.1-17.5,0-1.1-.5-1.4-1-1.6-.6-.3-1.8-.3-1.8-.8s1-.7,1.5-.9c1.9-.6,3.6-1.2,5.2-2.5.1-.1.4-.1.5.1s.1.5.1,1l-.1,22.1c.1,1.3,1.3,1.3,2.2,1.6.3.1.8.1.9.4.5.4-.2.6-.9.6M156.6,124.7c-1.9.6-6.2.1-6.6.1s-.3-.8-.3-.8c.7-3,.9-7.1,4.7-7.7,1-.1,1.9,0,2.5.8,1.3,1.4,1.7,3.7,1.3,5.7-.2.9-.8,1.5-1.6,1.9M177.2,138.3c0,1.2-2.9.4-2.5,2.1l-2.1.1c.1-1.6-2.8-.5-2.8-2.5l-.1-15.2c0-2.8,1.7-5,3.5-5,3.5,0,4.1,2.7,4.1,4.6l-.1,15.9ZM225.9,110.7c-.5.6-1.4.8-2.2.7-.7-.3-1.3-.9-1.6-1.7-.3-1.1-.3-2.4.3-3.3.4-.6,1.1-1,1.8-1.1.8,0,1.6.6,2,1.3.8,1.3.5,3-.3,4.1M244.4,118.3c-.2.4-7.2,22.7-7.2,22.7-.2.4-.4.5-.7.4,0,0-.2,0-.4-.4-.1-.1-.2-.5-.2-.5l-7.4-23.4c-.4-.6-2.1-.1-1.5-1.3.2-.3.4-.3.4-.3,2.8.4,5.5-.2,8.2,0,.5,0,.4.8.3.9-.8.4-2.6.3-2.6.9v.2c1.3,4.9,2.7,9.8,4.2,14.6.1.3.4.5.5.3.1-.1.1-.2.2-.3,1.6-4.4,2.7-9,4.1-13.4.2-.8-.2-1.4-.8-1.7-.7-.2-1.6-.1-2.2-.6-.1-.1-.2-.2-.2-.3-.1-.5.2-1,.7-.9,1.9.3,4.1.1,5.9.1h.3c.2,0,.3.5.1.8-.3.5-.9.2-1.2.5.3.3,0,.4-.5,1.7M257.3,140.5c-2.3,1.1-5.4,1.2-7.8,0l-.2-.1c-3.2-1.9-4.8-5.4-5.4-9-.6-5.9.4-11.7,5.1-15.4,2.4-1.8,5.9-2.2,8.6-.8,2.2,1.4,3.6,4,4,6.6.3,1.6.8,4.7-1.1,4.7-1.6,0-10.7.1-11.1.1s-.4.3-.4.3c-.3,3.6.1,7.6,2.5,10.2,1.4,1.6,3.8,1.5,5.6,1,1.8-.4,2.8-2.4,3.6-3.9,0-.1.1-.2.1-.2.2-.3.9-.1,1,.3v.3c-.3,2.5-2.3,4.6-4.3,5.7l-.2.2ZM255.7,124.7c.8-.3,1.4-1,1.6-1.9.4-2,0-4.2-1.3-5.7-.7-.7-1.5-.9-2.5-.8-3.7.6-4,4.7-4.7,7.7,0,0-.1.8.3.8.4,0,4.7.4,6.6-.1M273.8,140.4s0,.3-.5.3l-11.5-.1c-.3,0-.4-.3-.4-.3,0,0-.1-.4.4-.6,1-.4,2.8-.5,2.9-1.5v-.2c.2-5.7.3-11.6,0-17.3v-.5c-.3-.8-1.4-.6-2.4-1-.1,0-.3-.1-.4-.2-.2-.2-.2-.6.1-.8l.2-.1c2.1-.9,4.2-1.7,6-3.6,0,0,.1-.2.3-.2s.3.2.3.2c.3,1.6.1,3.4.2,5.1,0-.1.2-.5.2-.5,0,0,3.6-5.5,7-4.3,1.3.5,2.1,1.9,2.1,3.3,0,1.5-.6,3.2-1.9,3.6-.8.3-1.9.2-2.5-.8s0-2.9-1.6-2.9c-.4,0-.7.4-.9.5-1.1,1.2-1.5,3.1-1.7,4.7-.2,4.5,0,13.6,0,13.6v.7c.2,1.2,1.2,1.4,1.2,1.4.8.7,3,.3,2.9,1.5M192.7,140.4c-2.6.1-5.4.2-7.9.1.3-1.5-2.9-.8-2.9-2.4,0-.8-.2-17.9-.2-17.9,0-2-1.5-5.2-5.9-5.2-1.5.1-4.9.6-5.9,3.5v-3.5c0-.4-.7-.6-1-.3-1.6,1.7-3.9,2.4-5.9,3.5-.1.1-.2.1-.2.3,0,1.3,2.4.4,2.4,1.6v17.9c-.3,1.7-3,.4-2.8,2.4h-4c2-1.1,4-3.2,4.3-5.7v-.3c0-.4-.8-.6-1-.3l-.1.2c-.8,1.5-1.9,3.5-3.6,3.9-1.9.5-4.3.5-5.6-1-2.5-2.7-2.9-6.6-2.5-10.2,0,0,0-.3.4-.3s9.6-.1,11.1-.1c1.9,0,1.4-3.2,1.1-4.7-.4-2.6-1.8-5.2-4-6.6-2.6-1.4-6.2-1-8.6.8-4.7,3.7-5.7,9.5-5.1,15.4.6,3.5,2.2,7,5.5,9l-10.4.1c1.8-1.1,3.7-3.1,4.2-5.4,0-.2.1-.6,0-.7-.1-.4-.6-.5-.9-.2-.2.2-.3.4-.4.7-.8,1.4-1.5,2.9-3.1,3.4-1.8.6-4.1.6-5.6-.6-2.7-2.7-3.2-6.7-2.9-10.5,0,0,0-.4.4-.4.3,0,10.1-.2,11.2-.2,1.4,0,1.4-2.6,1.3-3.8-.2-2.9-1.3-5.5-3.8-7.3-2-1.3-5-1.4-7.1-.5-5.2,2.1-7,7.9-7.3,13.3.1,4.6,1.6,9.4,5.7,12l-8.5.1c.1-1.1-2.1-.8-2.9-1.1,0,0-1-.2-1.2-1.4v-.7s-.2-9.1,0-13.6c.3-1.6.6-3.6,1.7-4.7.1-.1.5-.5.9-.5,1.6,0,1.1,1.9,1.6,2.9.6,1,1.7,1.1,2.5.8,1.3-.4,1.9-2.2,1.9-3.6s-.8-2.9-2.1-3.3c-3.4-1.2-7,4.3-7,4.3,0,0-.2.3-.3.5-.1-1.7.1-3.5-.2-5.1,0,0-.1-.2-.3-.2s-.3.2-.3.2c-1.8,1.8-3.8,2.7-6,3.6l-.2.1c-.3.2-.2.6-.1.8.1.1.3.2.4.2,1,.3,2.2.2,2.4,1,.1.2,0,.3,0,.5.2,5.6.1,11.6,0,17.3v.2c-.1,1.1-1.9,1.1-2.9,1.6-.5.2-.4.6-.4.6-1.9,0-3.9.1-5.8,0,1.5-.7,4.2-1.7,4.2-4.5l.2-9.7c0-1.6,2.6-.6,2.3-2.3,0,0-.1-.4-.5-.4-.8,0-6.6-.1-9.7.1h-.3c-.3.1-.4.9-.2,1,.1,0,.1.1.1.1,1,.7,3.1.1,3.1,1.3v11.3c-.1,1-.9,1.8-1.8,2.1-2,.6-4,0-5.4-1.5-3.9-4.2-4-12.4-4-15.9s.2-12.4,5.7-15.2c1.3-.7,3.6-.7,4.8.5,2.1,2,2.6,4.7,4,7,.1.2.1.3.3.4.4.4,1.1-.1,1.1-.6l-.1-7.4c0-.8-3.4-2.1-6.1-2.1-5.4,0-9.2,2-12.1,6.3-3.9,5.6-4.1,14.1-1.9,20.6,1.2,3.5,4.1,7.2,7.4,8.7h-60.1l111-93.4c4-3.2,10.5-3.8,14.9-1,6.5,5.3,13,10.7,19.3,16.5,4.2,4.6,7.7,10.6,5.5,17.3-1.9,8.3-10.1,14.2-8.2,23.9.7,5.1,5.2,8.1,8.5,11.7,5.2,6.6,7,15.4,5.9,24.7M302.8,140.4c-4-11.5-13.7-23.2-24.8-27.9-4.5-2.2-9.2-3.7-14.1-4.8l-19.9-3c-10.2-2-20.4-3.7-29.8-7.6-4.8-2.4-9.5-7-9.1-13,1.3-4.6.7-10.1-2.8-13.5-2.6-2.9-5.8-4.4-8.8-6.3l-15.8-8.1c-2.6-1.5-5.2-3.1-7.8-4.7l17.2-14.1c4.2-2.9,10.6-2.3,14.5.8l94.9,80,26.8,22.3-20.5-.1Z"/>
</svg>