<?xml version="1.0" encoding="UTF-8"?><svg id="Layer_1" xmlns="http://www.w3.org/2000/svg" viewBox="0 0 65 65"><defs><style>.cls-1{fill:#231f20;}.cls-2{fill:#2f8942;}</style></defs><polygon class="cls-2" points="64.99 14.68 58.97 14.68 58.97 5.89 50.18 5.89 50.18 0 64.99 0 64.99 14.68"/><polygon class="cls-2" points="4.1 42.39 27.87 22.09 36.73 30.49 51.92 16.2 47.8 16.2 47.8 12.04 36.63 22.33 28.26 14.42 4.1 35.53 4.1 42.39"/><path class="cls-1" d="M53.55,14.53c-2.21,0-3.74-1.8-3.74-3.74s1.52-3.74,3.74-3.74,3.74,1.8,3.74,3.74-1.52,3.74-3.74,3.74"/><polygon class="cls-1" points="64.97 54.17 55.49 54.17 55.49 19.8 49.64 25.64 49.64 54.17 42.67 54.17 42.67 32.6 36.82 38.44 36.82 54.17 30.52 54.17 30.46 32.39 27.53 29.48 24.7 32.37 24.7 54.17 18.5 54.17 18.47 36.45 12.62 40.95 12.65 54.17 4.1 54.17 4.1 0 0 0 0 64.99 64.98 64.99 64.97 54.17"/></svg>