<?xml version="1.0" encoding="UTF-8"?>
<svg id="Layer_1" xmlns="http://www.w3.org/2000/svg" version="1.1" viewBox="0 0 65 65">
  <!-- Generator: Adobe Illustrator 29.0.1, SVG Export Plug-In . SVG Version: 2.1.0 Build 192)  -->
  <defs>
    <style>
      .st0 {
        fill: #fff;
      }

      .st1 {
        fill: #231f20;
      }
    </style>
  </defs>
  <polygon class="st0" points="65 14.7 59 14.7 59 5.9 50.2 5.9 50.2 0 65 0 65 14.7"/>
  <polygon class="st0" points="4.1 42.4 27.9 22.1 36.7 30.5 51.9 16.2 47.8 16.2 47.8 12 36.6 22.3 28.3 14.4 4.1 35.5 4.1 42.4"/>
  <path class="st1" d="M53.5,14.5c-2.2,0-3.7-1.8-3.7-3.7s1.5-3.7,3.7-3.7,3.7,1.8,3.7,3.7-1.5,3.7-3.7,3.7"/>
  <polygon class="st1" points="65 54.2 55.5 54.2 55.5 19.8 49.6 25.6 49.6 54.2 42.7 54.2 42.7 32.6 36.8 38.4 36.8 54.2 30.5 54.2 30.5 32.4 27.5 29.5 24.7 32.4 24.7 54.2 18.5 54.2 18.5 36.5 12.6 41 12.6 54.2 4.1 54.2 4.1 0 0 0 0 65 65 65 65 54.2"/>
</svg>