<?xml version="1.0" encoding="UTF-8"?>
<svg id="Layer_1" xmlns="http://www.w3.org/2000/svg" version="1.1" viewBox="0 0 65 65">
  <!-- Generator: Adobe Illustrator 29.0.1, SVG Export Plug-In . SVG Version: 2.1.0 Build 192)  -->
  <defs>
    <style>
      .st0 {
        fill: #fff;
      }

      .st1 {
        fill: #231f20;
      }
    </style>
  </defs>
  <path class="st0" d="M25.1,23.6H9.1v-6h16s0,6,0,6ZM25.1,29.5H9.1v6h16s0-6,0-6ZM25.1,41.5H9.1v6h16s0-6,0-6ZM56,17.6h-16v6h16v-6ZM56,29.5h-16v6h16v-6ZM56,41.5h-16v6h16v-6Z"/>
  <path class="st1" d="M65,7.9h-21.7c-4,0-7.8,1.6-10.6,4.4l-.5.5-.9-.9c-2.8-2.6-6.5-4-10.3-4H0v45.1h0v10.5h28.7l1.4,1.4h4.8l1.4-1.4h28.6v-4h0V7.9h0ZM35.6,16.7h0c1.5-1.6,3.8-2.7,6-2.7h18.2v38.8h-18.5c-2,0-3.8.8-5.2,2.2l-.5.5V16.7h0ZM23.6,13.8c2.1,0,4.4,1.2,5.9,2.6v38.8c-1.4-1.3-3.6-2.4-5.5-2.4H5.5l-.2-39.1s18.3,0,18.3,0ZM32.5,7.7c-2.2,0-3.8-1.8-3.8-3.8s1.5-3.8,3.8-3.8,3.8,1.8,3.8,3.8-1.5,3.8-3.8,3.8"/>
</svg>