<?xml version="1.0" encoding="UTF-8"?><svg id="Layer_1" xmlns="http://www.w3.org/2000/svg" viewBox="0 0 65 65"><defs><style>.cls-1{fill:#231f20;}.cls-2{fill:#2f8942;}</style></defs><path class="cls-2" d="M51,29.88l-7.26-15.96-12.06,23.62-10.64-15.61-5.91,7.96h-4.24c.49.97.78,2.07.78,3.23,0,.89-.17,1.74-.47,2.53h6.79l2.85-3.84,11.54,16.93,11.06-21.66,3.9,8.57h8.32c.99-1.85,1.76-3.78,2.27-5.76h-6.93Z"/><path class="cls-1" d="M8.24,33.12c0-1.91-1.49-3.68-3.65-3.68s-3.65,1.77-3.65,3.68,1.49,3.68,3.65,3.68,3.65-1.77,3.65-3.68Z"/><path class="cls-1" d="M63.06,11.29c-2.2-5.15-5.11-9.3-11.02-10.79-7.67-1.94-16.08,2.23-19.57,4.36C28.9,2.76,20.11-1.68,12.49.7,6.61,2.55,3.81,6.39,1.77,11.38-.26,16.37-.5,21.64.83,27.08c1.09-.7,2.38-1.11,3.77-1.11.71,0,1.39.11,2.03.3-.24-2.98.17-6.07,1.46-9.25,1.37-3.35,3.34-5.38,6.03-6.2.96-.29,1.98-.42,3.03-.42,5.38,0,11.02,3.31,13.26,4.84l1.64,1.12,1.62-1.15c.09-.07,9.58-6.22,16.63-4.21,2.82.8,5.15,2.55,6.65,6.06,8.36,19.54-17.71,36.23-24.44,41.01-4.21-3.01-15.98-10.7-22.12-20.9-.9,1.29-2.21,2.28-3.74,2.75,1.79,2.77,3.91,5.57,6.37,8.36,8.21,9.34,17.55,15.44,17.95,15.7l1.54,1,1.54-.99c.4-.26,9.85-6.4,18.11-15.76,11.38-12.9,15.72-25.71,10.91-36.95Z"/></svg>