<?xml version="1.0" encoding="UTF-8"?>
<svg id="Layer_1" xmlns="http://www.w3.org/2000/svg" version="1.1" viewBox="0 0 65 65">
  <!-- Generator: Adobe Illustrator 29.0.1, SVG Export Plug-In . SVG Version: 2.1.0 Build 192)  -->
  <defs>
    <style>
      .st0 {
        fill: #fff;
      }

      .st1 {
        fill: #231f20;
      }
    </style>
  </defs>
  <path class="st0" d="M51,29.9l-7.3-16-12.1,23.6-10.6-15.6-5.9,8h-4.2c.5,1,.8,2.1.8,3.2s-.2,1.7-.5,2.5h6.8l2.9-3.8,11.5,16.9,11.1-21.7,3.9,8.6h8.3c1-1.8,1.8-3.8,2.3-5.8h-6.9Z"/>
  <path class="st1" d="M8.2,33.1c0-1.9-1.5-3.7-3.7-3.7s-3.7,1.8-3.7,3.7,1.5,3.7,3.7,3.7,3.7-1.8,3.7-3.7Z"/>
  <path class="st1" d="M63.1,11.3c-2.2-5.2-5.1-9.3-11-10.8-7.7-1.9-16.1,2.2-19.6,4.4C28.9,2.8,20.1-1.7,12.5.7,6.6,2.5,3.8,6.4,1.8,11.4-.3,16.4-.5,21.6.8,27.1c1.1-.7,2.4-1.1,3.8-1.1s1.4.1,2,.3c-.2-3,.2-6.1,1.5-9.2,1.4-3.4,3.3-5.4,6-6.2,1-.3,2-.4,3-.4,5.4,0,11,3.3,13.3,4.8l1.6,1.1,1.6-1.1c0,0,9.6-6.2,16.6-4.2,2.8.8,5.2,2.6,6.7,6.1,8.4,19.5-17.7,36.2-24.4,41-4.2-3-16-10.7-22.1-20.9-.9,1.3-2.2,2.3-3.7,2.8,1.8,2.8,3.9,5.6,6.4,8.4,8.2,9.3,17.5,15.4,17.9,15.7l1.5,1,1.5-1c.4-.3,9.8-6.4,18.1-15.8,11.4-12.9,15.7-25.7,10.9-37h0Z"/>
</svg>