<?xml version="1.0" encoding="UTF-8"?>
<svg id="Layer_1" xmlns="http://www.w3.org/2000/svg" version="1.1" viewBox="0 0 65 65">
  <!-- Generator: Adobe Illustrator 29.0.1, SVG Export Plug-In . SVG Version: 2.1.0 Build 192)  -->
  <defs>
    <style>
      .st0 {
        fill: #fff;
      }

      .st1 {
        fill: #231f20;
      }
    </style>
  </defs>
  <path class="st0" d="M16.4,65v-10.4H5.5c0-8.8,3.1-16.5,11.6-16.6.2,0,.3,0,.5,0,.8-2.7,1.9-5,3.3-7-1.2.5-2.5.7-3.8.7-5.6,0-10.2-4.2-10.2-9.8s4.7-9.8,10.2-9.8.8,0,1.1,0c.3-1.8,1-3.4,1.8-4.9-1-.2-1.9-.3-3-.3-8.7,0-15.5,6.5-15.5,14.9s2.7,9.8,6.8,12.4C3.1,37.9,0,44.9,0,54.2v10.8h16.8-.4Z"/>
  <path class="st0" d="M56.6,34.4c4.1-2.6,6.8-7.2,6.8-12.4,0-8.3-6.8-14.9-15.5-14.9s-.8,0-1.2,0c1,1.5,1.6,3.2,2,5.1,5.2.3,9.5,4.4,9.5,9.8s-4.7,9.8-10.2,9.8-1,0-1.5-.1c1.2,1.8,2.2,4,2.9,6.4,7.5.9,10.2,8.2,10.2,16.5h0s-9,0-9,0v10.4h-.1,14.6v-10.8c0-9.4-3.1-16.3-8.4-19.8h0Z"/>
  <path class="st1" d="M32.8,35.5c-2.3,0-3.9,1.8-3.9,3.8s1.6,3.8,3.9,3.8,3.9-1.8,3.9-3.8-1.6-3.8-3.9-3.8Z"/>
  <path class="st1" d="M42.1,27.3c4.1-2.6,6.8-7.2,6.8-12.4,0-8.3-6.8-14.9-15.5-14.9s-15.5,6.6-15.5,14.9,2.7,9.8,6.8,12.4c-5.2,3.5-8.4,10.5-8.4,19.8v17.9h34.1v-17.9c0-9.4-3.1-16.3-8.4-19.8ZM23.2,14.9c0-5.6,4.7-9.8,10.2-9.8s10.2,4.2,10.2,9.8-4.7,9.8-10.2,9.8-10.2-4.2-10.2-9.8ZM45,54.6h-23.2v-7.1c0-8.8,3.1-16.4,11.6-16.6,8.5.1,11.6,7.8,11.6,16.6v7.1Z"/>
</svg>