<?xml version="1.0" encoding="UTF-8"?><svg id="Layer_1" xmlns="http://www.w3.org/2000/svg" viewBox="0 0 65 65"><defs><style>.cls-1{fill:#231f20;}.cls-2{fill:#2f8942;}</style></defs><path class="cls-2" d="M16.37,64.99v-10.38H5.46v-.05c0-8.77,3.06-16.44,11.6-16.58.17,0,.32.03.49.04.76-2.69,1.88-5.02,3.31-6.95-1.19.45-2.47.71-3.81.71-5.55,0-10.22-4.17-10.22-9.78s4.67-9.78,10.22-9.78c.38,0,.75.02,1.11.06.32-1.77.95-3.42,1.84-4.9-.95-.17-1.94-.26-2.95-.26C8.33,7.09,1.54,13.64,1.54,21.98c0,5.23,2.67,9.76,6.82,12.41C3.13,37.92,0,44.86,0,54.21v10.79h5.46s11.33,0,11.33,0h0s-.42,0-.42,0Z"/><path class="cls-2" d="M56.64,34.39c4.14-2.65,6.82-7.17,6.82-12.41,0-8.34-6.78-14.89-15.5-14.89-.42,0-.84.02-1.25.05.95,1.53,1.63,3.24,1.96,5.09,5.23.34,9.5,4.38,9.5,9.75s-4.67,9.78-10.22,9.78c-.52,0-1.02-.04-1.52-.11,1.24,1.82,2.21,3.98,2.9,6.43,7.48.91,10.21,8.2,10.21,16.48v.05h-9.05v10.38h-.12s9.17,0,9.17,0h0s5.46,0,5.46,0v-10.79c0-9.36-3.13-16.3-8.36-19.83Z"/><path class="cls-1" d="M32.84,35.51c-2.32,0-3.91,1.82-3.91,3.77s1.59,3.78,3.91,3.78,3.91-1.82,3.91-3.78-1.59-3.77-3.91-3.77Z"/><path class="cls-1" d="M42.12,27.29c4.14-2.65,6.8-7.17,6.8-12.4C48.92,6.55,42.14,0,33.41,0s-15.5,6.55-15.5,14.89c0,5.23,2.67,9.76,6.82,12.41-5.23,3.53-8.36,10.47-8.36,19.83v17.87h.42s33.58,0,33.58,0h0s.12,0,.12,0v-17.87c0-9.36-3.14-16.31-8.37-19.84ZM23.2,14.89c0-5.61,4.67-9.78,10.22-9.78s10.22,4.17,10.22,9.78-4.67,9.78-10.22,9.78-10.22-4.17-10.22-9.78ZM45.03,54.61h-23.2v-7.14c0-8.77,3.06-16.44,11.6-16.58,8.54.14,11.6,7.81,11.6,16.58v7.14Z"/></svg>