<?xml version="1.0" encoding="UTF-8"?><svg id="Layer_1" xmlns="http://www.w3.org/2000/svg" viewBox="0 0 65 65"><defs><style>.cls-1{fill:#231f20;}.cls-2{fill:#2f8942;}</style></defs><polygon class="cls-2" points="42.6 52.18 42.6 30.25 44.83 30.25 44.83 27.12 34.49 27.12 34.49 30.25 36.73 30.25 36.73 52.18 34.61 52.18 34.61 54.67 44.95 54.67 44.95 52.18 42.6 52.18"/><polygon class="cls-2" points="8.6 30.25 8.6 52.18 6.37 52.18 6.37 54.67 16.71 54.67 16.71 52.18 14.47 52.18 14.47 30.25 16.71 30.25 16.71 27.12 6.37 27.12 6.37 30.25 8.6 30.25"/><polygon class="cls-2" points="28.51 52.18 28.51 30.25 30.74 30.25 30.74 27.12 20.4 27.12 20.4 30.25 22.63 30.25 22.63 52.18 20.52 52.18 20.52 54.67 30.86 54.67 30.86 52.18 28.51 52.18"/><polygon class="cls-2" points="56.75 52.18 56.75 30.25 58.98 30.25 58.98 27.12 48.64 27.12 48.64 30.25 50.88 30.25 50.88 52.18 48.64 52.18 48.64 54.67 58.98 54.67 58.98 52.18 56.75 52.18"/><path class="cls-1" d="M32.58,17.93c-2.22,0-3.75-1.81-3.75-3.75s1.53-3.75,3.75-3.75,3.75,1.81,3.75,3.75-1.53,3.75-3.75,3.75M65.01,21.25H0v5.87h65.01v-5.87ZM0,18.55L32.38,6.26l32.6,12.28v-6.27L32.39,0,0,12.29v6.26ZM61.48,54.67H3.52L0,65h65.01l-3.52-10.33Z"/></svg>