<?xml version="1.0" encoding="UTF-8"?>
<svg id="Layer_1" xmlns="http://www.w3.org/2000/svg" version="1.1" viewBox="0 0 65 65">
  <!-- Generator: Adobe Illustrator 29.0.1, SVG Export Plug-In . SVG Version: 2.1.0 Build 192)  -->
  <defs>
    <style>
      .st0 {
        fill: #fff;
      }

      .st1 {
        fill: #231f20;
      }
    </style>
  </defs>
  <polygon class="st0" points="42.6 52.2 42.6 30.2 44.8 30.2 44.8 27.1 34.5 27.1 34.5 30.2 36.7 30.2 36.7 52.2 34.6 52.2 34.6 54.7 45 54.7 45 52.2 42.6 52.2"/>
  <polygon class="st0" points="8.6 30.2 8.6 52.2 6.4 52.2 6.4 54.7 16.7 54.7 16.7 52.2 14.5 52.2 14.5 30.2 16.7 30.2 16.7 27.1 6.4 27.1 6.4 30.2 8.6 30.2"/>
  <polygon class="st0" points="28.5 52.2 28.5 30.2 30.7 30.2 30.7 27.1 20.4 27.1 20.4 30.2 22.6 30.2 22.6 52.2 20.5 52.2 20.5 54.7 30.9 54.7 30.9 52.2 28.5 52.2"/>
  <polygon class="st0" points="56.8 52.2 56.8 30.2 59 30.2 59 27.1 48.6 27.1 48.6 30.2 50.9 30.2 50.9 52.2 48.6 52.2 48.6 54.7 59 54.7 59 52.2 56.8 52.2"/>
  <path class="st1" d="M32.6,17.9c-2.2,0-3.8-1.8-3.8-3.8s1.5-3.8,3.8-3.8,3.8,1.8,3.8,3.8-1.5,3.8-3.8,3.8M65,21.2H0v5.9h65v-5.9ZM0,18.5L32.4,6.3l32.6,12.3v-6.3L32.4,0,0,12.3v6.3ZM61.5,54.7H3.5l-3.5,10.3h65l-3.5-10.3h0Z"/>
</svg>