<?xml version="1.0" encoding="UTF-8"?>
<svg id="Layer_1" xmlns="http://www.w3.org/2000/svg" version="1.1" viewBox="0 0 65 65">
  <!-- Generator: Adobe Illustrator 29.0.1, SVG Export Plug-In . SVG Version: 2.1.0 Build 192)  -->
  <defs>
    <style>
      .st0 {
        fill: #fff;
      }

      .st1 {
        fill: #231f20;
      }
    </style>
  </defs>
  <path class="st1" d="M28.8,23.5c0-1.5.9-2.8,2.3-3.5l-16.2-4.7,15.7-7.2c-1.3-.6-2.2-2-2.2-3.4s.5-2.1,1.3-2.8L10.9,10.7V0H0v13.9c1.4-1.9,3.7-3.2,6.3-3.2,4.2,0,7.6,3.3,7.6,7.3s-3.4,7.3-7.6,7.3-4.9-1.3-6.3-3.2v21.8c1.3-2.2,3.8-3.7,6.6-3.7s6,2,7.1,4.7l8.6-8.1,4.3,4-12.9,4.1c.3.8.5,1.7.5,2.5,0,4-3.4,7.3-7.6,7.3S1.3,53.4,0,51.2v13.8h10.9v-9.1l18.9,7.3c-.7-.7-1.1-1.7-1.1-2.7s.8-2.7,2.1-3.3l-16.1-6.2,17.6-5.6c-2.1-.2-3.6-1.9-3.6-3.7s1.5-3.6,3.6-3.7l-5.5-5.1,6-5.6c-2.3,0-3.9-1.8-3.9-3.8h0ZM10.9,39.5v-13.3l7.1,6.6s-7.1,6.6-7.1,6.6ZM22.4,28.7l-7.8-7.3,11.9,3.4s-4.1,3.8-4.1,3.8Z"/>
  <path class="st1" d="M61.1,28.8c-2.3,0-3.9,1.8-3.9,3.8s1.6,3.8,3.9,3.8,3.9-1.8,3.9-3.8-1.6-3.8-3.9-3.8Z"/>
  <path class="st0" d="M60.3,39.8c-3.9-.3-6.9-3.5-6.9-7.3s2.9-6.8,6.7-7.2L36.1,3.3c.2.5.3.9.3,1.4,0,1.8-1.4,3.6-3.6,3.7l19.5,17.9-16.7-5.4c.6.7,1,1.6,1,2.5,0,1.4-.8,2.7-2.1,3.4l18.2,6-18.4,5.5c1.3.7,2.1,2,2.1,3.3s-.4,1.8-1,2.5l16.7-5-19.2,17.7c2.1.2,3.5,1.9,3.5,3.7s-.1,1-.3,1.5l24.2-22.2h0Z"/>
</svg>