<?xml version="1.0" encoding="UTF-8"?><svg id="Layer_1" xmlns="http://www.w3.org/2000/svg" viewBox="0 0 65 65"><defs><style>.cls-1{fill:#231f20;}.cls-2{fill:#2f8942;}</style></defs><path class="cls-1" d="M28.82,23.47c0-1.46.9-2.84,2.32-3.45l-16.2-4.67,15.72-7.24c-1.33-.64-2.17-1.96-2.17-3.37,0-1.05.48-2.06,1.27-2.77L10.86,10.69V0H0v13.88c1.38-1.91,3.68-3.16,6.28-3.16,4.21,0,7.64,3.28,7.64,7.31s-3.43,7.31-7.64,7.31c-2.6,0-4.9-1.26-6.28-3.16v21.77c1.32-2.19,3.79-3.67,6.62-3.67,3.26,0,6.04,1.97,7.13,4.72l8.63-8.06,4.28,3.99-12.89,4.11c.31.79.49,1.65.49,2.55,0,4.03-3.43,7.32-7.64,7.32-2.83,0-5.29-1.48-6.62-3.67v13.76h10.86v-9.07l18.91,7.27c-.72-.7-1.14-1.66-1.14-2.66,0-1.38.81-2.68,2.1-3.33l-16.13-6.2,17.62-5.62c-2.14-.17-3.59-1.88-3.59-3.74s1.47-3.58,3.62-3.74l-5.45-5.09,5.96-5.57c-2.33,0-3.93-1.82-3.93-3.77ZM10.86,39.46v-13.28l7.11,6.64-7.11,6.64ZM22.38,28.69l-7.79-7.27,11.9,3.43-4.11,3.84Z"/><path class="cls-1" d="M61.06,28.76c-2.33,0-3.94,1.82-3.94,3.77s1.6,3.77,3.94,3.77,3.94-1.82,3.94-3.77-1.61-3.77-3.94-3.77Z"/><path class="cls-2" d="M60.33,39.81c-3.87-.35-6.91-3.48-6.91-7.28s2.9-6.78,6.65-7.24L36.08,3.31c.19.45.3.94.3,1.44,0,1.85-1.44,3.55-3.57,3.74l19.54,17.9-16.66-5.43c.64.69,1.02,1.59,1.02,2.53,0,1.39-.82,2.7-2.13,3.35l18.23,5.95-18.42,5.54c1.3.65,2.12,1.95,2.12,3.34,0,.93-.37,1.82-1.01,2.51l16.65-5-19.18,17.65c2.11.2,3.54,1.89,3.54,3.73,0,.53-.13,1.04-.34,1.51l24.17-22.24Z"/></svg>