<?xml version="1.0" encoding="UTF-8"?>
<svg id="Layer_1" xmlns="http://www.w3.org/2000/svg" version="1.1" viewBox="0 0 65 65">
  <!-- Generator: Adobe Illustrator 29.5.1, SVG Export Plug-In . SVG Version: 2.1.0 Build 141)  -->
  <defs>
    <style>
      .st0 {
        fill: #231f20;
      }

      .st1 {
        fill: #2f8942;
      }
    </style>
  </defs>
  <path class="st1" d="M59,37.3c-1.4.9-2.8,1.8-4.4,2.5,0,.7.2,1.5.2,2.4v8.9s-9.7,3.1-14.6,3.2c-.7,0-3.7-7-7.2-7h-1.1c-3.4,0-6.5,7-7.2,7-4.9,0-14.6-3.2-14.6-3.2v-8.9c0-.9.1-1.8.2-2.5-1.5-.8-3-1.6-4.3-2.5l-.3.2H1.5c-.7,0-1.3.6-1.3,1.3v12.4c0,.7.6,1.3,1.3,1.3h3.8v2.7s14.4,5,20.9,5c.8,0,2.7-7.1,5.5-7.7,0,0,.3,0,.7,0,.4,0,.7,0,.7,0,2.8.6,4.7,7.7,5.5,7.7,6.5,0,20.9-5,20.9-5v-2.7h3.9c.7,0,1.3-.6,1.3-1.3v-12.4c0-.7-.6-1.3-1.3-1.3h-4.5Z"/>
  <g>
    <path class="st0" d="M63.2,34.1c0-13.6-7.6-26.2-18.2-31.7h0c0-1.3-.9-2.3-2.1-2.3h-20.8c-1.2,0-2.1,1-2.1,2.2h0C9.4,7.8,1.7,20.4,1.7,34h0c6.9,6.6,20.7,11.6,30.7,11.6s23.8-4.9,30.6-11.6c0,0,0,0,0,0h0ZM20,8.3v5.1h4.9v-6.9c0-.7.5-1.2,1.1-1.2h12.9c.6,0,1.1.5,1.1,1.2v6.9h4.9v-5c6.8,4.9,12.2,13.7,13.1,22.8-6.8-6.1-16-9.4-25.6-9.4s-18.9,3.3-25.7,9.5c.8-9.2,6.3-18,13.2-23ZM32.5,40.6c-5.4,0-12.7-1.5-17.3-4.5,4.7-2.1,11.7-3,17.1-3s12.1,1.1,17.1,3.3c-4.6,3-11.5,4.2-16.9,4.2Z"/>
    <path class="st0" d="M32.5,18c2.2,0,3.7-1.9,3.7-3.9s-1.5-3.9-3.7-3.9-3.7,1.9-3.7,3.9,1.5,3.9,3.7,3.9Z"/>
  </g>
</svg>